# xmcd CD database file
#
# Track frame offsets:
#	150
#	15825
#	30982
#	42494
#	58562
#	73597
#	85110
#	96315
#
# Disc length: 1445 seconds
#
# Revision: 0
# Processed by: cddbd v1.5.2PL0 Copyright (c) Steve Scherf et al.
# Submitted via: CDex 1.70beta2
#
DISCID=5805a308
DTITLE=compilation - 1950 Les chefs de file
DYEAR=2010
DGENRE=Jazz
TTITLE0=Charlie Parker - Bloomdido
TTITLE1=Miles Davis - Moon Dreams
TTITLE2=Lee Konitz - Palo alto
TTITLE3=Bud Powell - Tea for Two
TTITLE4=Count Basie - Little White Lies
TTITLE5=Oscar Peterson - Get Happy
TTITLE6=Red Norvo - I Get a Kick Out of You
TTITLE7=Stan Getz - Hershey Bar
EXTD=YEAR: 2010
EXTT0=
EXTT1=
EXTT2=
EXTT3=
EXTT4=
EXTT5=
EXTT6=
EXTT7=
PLAYORDER=
